<?xml version="1.0" encoding="UTF-8"?>
<svg version="1.1" xmlns="http://www.w3.org/2000/svg" width="834" height="196">
<path d="M0 0 C64.35 0 128.7 0 195 0 C195 64.68 195 129.36 195 196 C162 196 129 196 95 196 C95 189.07 95 182.14 95 175 C121.07 175 147.14 175 174 175 C174 124.18 174 73.36 174 21 C123.18 21 72.36 21 20 21 C20 78.75 20 136.5 20 196 C13.4 196 6.8 196 0 196 C0 131.32 0 66.64 0 0 Z " fill="#000000" transform="translate(0,0)"/>
<path d="M0 0 C43.56 0 87.12 0 132 0 C132 43.56 132 87.12 132 132 C109.56 132 87.12 132 64 132 C64 125.07 64 118.14 64 111 C79.51 111 95.02 111 111 111 C111 81.3 111 51.6 111 21 C81.3 21 51.6 21 21 21 C21 68.19 21 115.38 21 164 C14.07 164 7.14 164 0 164 C0 109.88 0 55.76 0 0 Z " fill="#0017EF" transform="translate(31,32)"/>
<path d="M0 0 C16.438125 -0.061875 32.87625 -0.12375 49.8125 -0.1875 C54.98526611 -0.21481201 60.15803223 -0.24212402 65.48754883 -0.27026367 C71.84899902 -0.28381348 71.84899902 -0.28381348 74.83573914 -0.28633118 C76.9027755 -0.2909102 78.9698043 -0.30140344 81.03678894 -0.31672668 C84.18457768 -0.33887716 87.33188064 -0.34171166 90.47973633 -0.34057617 C91.83967445 -0.35676766 91.83967445 -0.35676766 93.22708607 -0.37328625 C102.79733905 -0.32746965 112.52542276 1.69757237 120 8 C128.28975453 17.02991119 128.15777492 28.27180214 128.203125 39.85546875 C128.20882507 40.99349442 128.21452515 42.13152008 128.22039795 43.30403137 C128.22981878 45.70699136 128.23637029 48.1099641 128.24023438 50.51293945 C128.24992146 54.15794859 128.28096609 57.80238901 128.3125 61.44726562 C128.31903301 63.79166335 128.32428231 66.13606507 128.328125 68.48046875 C128.3404718 69.55588425 128.3528186 70.63129974 128.36553955 71.73930359 C128.33805826 81.24068492 127.38649382 91.51867867 121 99 C108.11013519 111.31698193 89.52985899 109.28304478 72.94921875 109.1953125 C71.07605102 109.19236527 69.20288163 109.19032903 67.32971191 109.18920898 C60.44894919 109.17880042 53.56822193 109.15087814 46.6875 109.125 C23.5771875 109.063125 23.5771875 109.063125 0 109 C0 73.03 0 37.06 0 0 Z M25 21 C25 42.78 25 64.56 25 87 C36.71285237 87.11646926 36.71285237 87.11646926 48.42578125 87.1953125 C53.2077016 87.21916403 57.98931369 87.24728807 62.77099609 87.30175781 C66.62896081 87.3454269 70.48659467 87.36918115 74.3447876 87.37950897 C75.81192224 87.38686282 77.27904009 87.40122288 78.74603271 87.42292023 C90.18755183 87.96525014 90.18755183 87.96525014 100 83 C103.52014428 77.66916975 103.44231312 71.45802226 103.3984375 65.27734375 C103.40130768 64.37303116 103.40417786 63.46871857 103.40713501 62.53700256 C103.40916495 60.63688526 103.40371047 58.73674655 103.39111328 56.83666992 C103.37502538 53.94206737 103.39100811 51.04885692 103.41015625 48.15429688 C103.40817399 46.29947611 103.40433068 44.44465621 103.3984375 42.58984375 C103.40451019 41.73237045 103.41058289 40.87489716 103.4168396 39.99143982 C103.34563766 33.85855703 102.22319409 29.39329624 98.8125 24.1875 C91.76457217 19.56989211 82.24238473 20.74185531 74.21875 20.8046875 C72.96868164 20.80670166 71.71861328 20.80871582 70.43066406 20.81079102 C65.78707174 20.82120897 61.14353196 20.84913138 56.5 20.875 C46.105 20.91625 35.71 20.9575 25 21 Z " fill="#000000" transform="translate(566,14)"/>
<path d="M0 0 C1.01334663 -0.00744736 1.01334663 -0.00744736 2.04716492 -0.01504517 C4.27217651 -0.02959381 6.4971167 -0.03645822 8.72216797 -0.04199219 C9.86966333 -0.04623325 9.86966333 -0.04623325 11.04034042 -0.05056 C15.09248955 -0.06552683 19.14460333 -0.0747708 23.19677734 -0.07910156 C27.35573598 -0.08456788 31.5143642 -0.10856389 35.67321968 -0.13707352 C38.89398092 -0.15582414 42.11466474 -0.16091216 45.33547592 -0.16243744 C46.86708243 -0.16543895 48.39868842 -0.17338145 49.93024063 -0.18662262 C62.26691213 -0.28562706 74.56780466 0.28964772 84.08935547 9.16113281 C88.56823933 15.33299191 90.20357047 20.78253719 90.25048828 28.34741211 C90.26009583 29.59938889 90.26970337 30.85136566 90.27960205 32.14128113 C90.28445174 33.50596941 90.28873015 34.87065982 90.29248047 36.23535156 C90.29672153 37.27212508 90.29672153 37.27212508 90.30104828 38.32984352 C90.31602122 41.9906515 90.32526142 45.6514203 90.32958984 49.31225586 C90.33505839 53.07349943 90.35905716 56.83437805 90.3875618 60.59550762 C90.40629417 63.5047964 90.41139947 66.41399932 90.41292572 69.32334328 C90.41593111 70.70867714 90.42388726 72.09401027 90.4371109 73.47928429 C90.53418615 84.43438898 89.88751576 93.26665442 82.08935547 101.43847656 C72.1099676 110.03400401 56.90575217 109.47156961 44.47607422 109.46191406 C42.59623589 109.46834175 42.59623589 109.46834175 40.67842102 109.47489929 C37.37860846 109.48204822 34.07898232 109.47906521 30.7791748 109.47332764 C27.46387655 109.47383293 24.14871802 109.50138918 20.83349609 109.52246094 C-15.44951218 109.61371806 -15.44951218 109.61371806 -24.91064453 101.16113281 C-33.85640285 92.21537449 -34.06644263 81.33029188 -34.07861328 69.33300781 C-34.08360588 67.61673187 -34.08360588 67.61673187 -34.08869934 65.86578369 C-34.09375321 63.44844971 -34.09610814 61.03110879 -34.09594727 58.61376953 C-34.09812857 54.93803236 -34.11628677 51.26259799 -34.13525391 47.58691406 C-34.13818927 45.23144633 -34.14017311 42.87597718 -34.14111328 40.52050781 C-34.1482988 39.43163269 -34.15548431 38.34275757 -34.16288757 37.22088623 C-34.13062093 26.30345949 -33.11732259 15.61574792 -25.28564453 7.41113281 C-17.91598445 1.86044735 -9.01730463 0.05059069 0 0 Z M-5.84814453 25.53613281 C-8.71421319 29.18385656 -9.03138444 32.08327208 -9.07177734 36.63500977 C-9.08138489 37.51304764 -9.09099243 38.39108551 -9.10089111 39.29573059 C-9.10514099 40.23744614 -9.10939087 41.17916168 -9.11376953 42.14941406 C-9.1194696 43.12597458 -9.12516968 44.1025351 -9.13104248 45.10868835 C-9.14048104 47.17392904 -9.14702191 49.23918471 -9.15087891 51.30444336 C-9.16057665 54.45160424 -9.19160793 57.5981097 -9.22314453 60.74511719 C-9.22967588 62.75487895 -9.23492583 64.76464536 -9.23876953 66.77441406 C-9.25111633 67.71005692 -9.26346313 68.64569977 -9.27618408 69.60969543 C-9.25729181 75.19657656 -8.93036036 79.37504475 -5.91064453 84.16113281 C0.09014026 88.11056977 6.60310028 87.59654345 13.59326172 87.55957031 C14.78990952 87.56244049 15.98655731 87.56531067 17.21946716 87.56826782 C19.74177526 87.57030379 22.26409931 87.56480676 24.78637695 87.55224609 C28.64228648 87.5361727 32.49715005 87.55211904 36.35302734 87.57128906 C38.80810778 87.56930683 41.26318756 87.56546356 43.71826172 87.55957031 C44.86839249 87.56564301 46.01852325 87.5717157 47.20350647 87.57797241 C52.88288185 87.52815589 57.23184883 87.46636581 62.08935547 84.16113281 C66.95441519 79.12831241 66.24872379 72.5121308 66.25732422 65.95019531 C66.26065262 65.06383392 66.26398102 64.17747253 66.26741028 63.26425171 C66.27246158 61.39329546 66.27481916 59.52233025 66.2746582 57.65136719 C66.2768426 54.80290744 66.29501167 51.95483652 66.31396484 49.10644531 C66.31689963 47.28352996 66.31888386 45.46061278 66.31982422 43.63769531 C66.33060249 42.37017929 66.33060249 42.37017929 66.34159851 41.07705688 C66.31904877 35.18290261 65.95523661 29.81642521 62.46435547 24.84863281 C56.31398888 20.4786355 48.54575605 20.86503892 41.30810547 20.89550781 C40.29518433 20.89359436 39.28226318 20.89168091 38.23864746 20.88970947 C36.10733795 20.88835477 33.97601999 20.89200098 31.84472656 20.90039062 C28.59925645 20.91110014 25.3543398 20.90047075 22.10888672 20.88769531 C20.02945842 20.88901703 17.95003047 20.89157969 15.87060547 20.89550781 C14.90892456 20.89145935 13.94724365 20.88741089 12.9564209 20.88323975 C6.08749553 20.93058974 -0.31069195 21.05904349 -5.84814453 25.53613281 Z " fill="#000000" transform="translate(743.91064453125,13.8388671875)"/>
<path d="M0 0 C16.603125 -0.061875 33.20625 -0.12375 50.3125 -0.1875 C55.53747314 -0.21481201 60.76244629 -0.24212402 66.14575195 -0.27026367 C72.57067871 -0.28381348 72.57067871 -0.28381348 75.58708191 -0.28633118 C77.67495141 -0.29091065 79.76281342 -0.30140482 81.85063171 -0.31672668 C85.02987256 -0.33887355 88.20863236 -0.34171178 91.38793945 -0.34057617 C92.76193012 -0.35676766 92.76193012 -0.35676766 94.16367817 -0.37328625 C103.62789748 -0.32841376 113.69785501 1.57743157 121 8 C126.54457026 14.71854815 128.31234589 22.18461851 128.30078125 30.8046875 C128.30506638 31.52810333 128.3093515 32.25151917 128.31376648 32.99685669 C128.31947441 34.51791341 128.32003634 36.03899742 128.31567383 37.56005859 C128.31251763 39.86213733 128.33600258 42.16292368 128.36132812 44.46484375 C128.39937658 53.36733699 127.94816241 60.81123416 123.4375 68.75 C111.92533181 79.37661679 95.42292383 78.29629125 80.76171875 78.1953125 C79.14362261 78.19157212 77.52552417 78.18873001 75.90742493 78.18673706 C71.69399518 78.17918115 67.48070818 78.15960404 63.26733398 78.1373291 C58.94972666 78.11669513 54.63209578 78.10769821 50.31445312 78.09765625 C41.87622998 78.07634866 33.43814931 78.04123443 25 78 C25 88.23 25 98.46 25 109 C16.75 109 8.5 109 0 109 C0 73.03 0 37.06 0 0 Z M25 21 C25 32.88 25 44.76 25 57 C37.29490129 57.08730091 37.29490129 57.08730091 49.58984375 57.14648438 C54.60670526 57.16439717 59.62340204 57.18555678 64.64013672 57.22631836 C68.68610817 57.25898553 72.73190288 57.27686848 76.77799606 57.28463173 C78.31932735 57.29016207 79.86064929 57.30096154 81.40190506 57.31719017 C83.56583585 57.33906293 85.72904233 57.34196292 87.89306641 57.34057617 C89.73839462 57.35056892 89.73839462 57.35056892 91.6210022 57.36076355 C95.37677751 56.95977281 97.78255738 55.94545463 101 54 C104.06023282 49.74211711 103.32963788 44.59075313 103.3125 39.5625 C103.32861328 38.62083984 103.34472656 37.67917969 103.36132812 36.70898438 C103.36487253 31.68656741 103.3536731 28.03591542 100 24 C95.18717817 20.68081253 88.99344632 20.87549913 83.35205078 20.88647461 C82.05115509 20.88655014 80.7502594 20.88662567 79.40994263 20.88670349 C78.00506552 20.89180899 76.60018881 20.89702496 75.1953125 20.90234375 C73.74657236 20.90421077 72.29783158 20.90563333 70.84909058 20.90663147 C67.05153637 20.91043427 63.25402092 20.92024526 59.45648193 20.93133545 C54.89174195 20.94340484 50.32698895 20.94796247 45.76223755 20.95378876 C38.84146482 20.96345837 31.92077698 20.98263051 25 21 Z " fill="#000000" transform="translate(239,14)"/>
<path d="M0 0 C8.25 0 16.5 0 25 0 C25.01981934 2.20502197 25.03963867 4.41004395 25.06005859 6.68188477 C25.12708351 13.98219771 25.20472114 21.28237034 25.28752708 28.58252048 C25.33738901 33.0068863 25.38371967 37.4312294 25.421875 41.85571289 C25.45885578 46.12872625 25.50524988 50.40154483 25.55806351 54.67439079 C25.57653967 56.30135607 25.59167243 57.92836299 25.60334396 59.55539131 C25.62032311 61.84124658 25.64938474 64.12666231 25.68115234 66.41235352 C25.69447601 67.71141129 25.70779968 69.01046906 25.7215271 70.34889221 C26.11725447 75.53734419 26.63752946 79.6724646 30.4375 83.375 C34.08046223 85.68517117 36.78007611 86.12895236 41.00292969 86.16113281 C42.02118835 86.17074036 43.03944702 86.1803479 44.08856201 86.19024658 C45.1885553 86.19449646 46.28854858 86.19874634 47.421875 86.203125 C48.55522278 86.20882507 49.68857056 86.21452515 50.85626221 86.22039795 C53.25702989 86.22985028 55.65781055 86.23638285 58.05859375 86.24023438 C61.72158641 86.24992483 65.38401442 86.28094062 69.046875 86.3125 C71.380205 86.31903167 73.71353902 86.3242815 76.046875 86.328125 C77.13877136 86.3404718 78.23066772 86.3528186 79.35565186 86.36553955 C85.31372392 86.34819419 89.85044968 86.13830118 95 83 C98.16843142 78.92840352 98.44243313 75.25905457 98.43237305 70.2722168 C98.4425647 69.51070816 98.45275635 68.74919952 98.46325684 67.96461487 C98.49333724 65.45940751 98.50264499 62.95458283 98.51171875 60.44921875 C98.52856915 58.70757278 98.54671988 56.96593894 98.56611633 55.22431946 C98.61358341 50.64919832 98.64341402 46.07412639 98.66955566 41.49884033 C98.69937781 36.826602 98.74590247 32.15453315 98.79101562 27.48242188 C98.87701144 18.32168382 98.94282887 9.16096335 99 0 C107.25 0 115.5 0 124 0 C124.09069258 10.74497811 124.16394089 21.48969826 124.20724869 32.23497391 C124.22804365 37.22547988 124.25621198 42.21570836 124.30175781 47.20605469 C124.34550605 52.03012536 124.36919781 56.85393063 124.37950897 61.67818451 C124.38684868 63.51042605 124.40118017 65.34265454 124.42292023 67.1747818 C124.55363911 78.65705316 124.1992197 88.69024719 118.3125 98.9375 C106.93179938 109.0878546 92.43083141 109.15078366 77.99609375 109.203125 C76.1410598 109.21167511 76.1410598 109.21167511 74.24855042 109.22039795 C71.63893478 109.22980956 69.02930747 109.23636659 66.41967773 109.24023438 C62.47422971 109.24990993 58.5293098 109.28095908 54.58398438 109.3125 C18.47524539 109.46519385 18.47524539 109.46519385 9 101 C1.75149541 93.75149541 -0.10442604 85.14598854 -0.12442017 75.1131134 C-0.12082489 74.37727524 -0.11722961 73.64143707 -0.11352539 72.88330078 C-0.11367142 72.09238541 -0.11381744 71.30147003 -0.1139679 70.48658752 C-0.11327489 67.88946731 -0.10551129 65.29242009 -0.09765625 62.6953125 C-0.0957899 60.8878483 -0.09436702 59.08038359 -0.09336853 57.2729187 C-0.08956049 52.52842804 -0.07974488 47.78396826 -0.06866455 43.03948975 C-0.05841355 38.19299741 -0.05386302 33.34650006 -0.04882812 28.5 C-0.03812102 18.99998429 -0.02053815 9.49999955 0 0 Z " fill="#000000" transform="translate(381,14)"/>
<path d="M0 0 C22.77 0 45.54 0 69 0 C69 22.77 69 45.54 69 69 C53.16 69 37.32 69 21 69 C21 90.12 21 111.24 21 133 C14.07 133 7.14 133 0 133 C0 89.11 0 45.22 0 0 Z M21 21 C21 29.91 21 38.82 21 48 C29.91 48 38.82 48 48 48 C48 39.09 48 30.18 48 21 C39.09 21 30.18 21 21 21 Z " fill="#000000" transform="translate(63,63)"/>
<path d="M0 0 C8.25 0 16.5 0 25 0 C25 35.97 25 71.94 25 109 C16.75 109 8.5 109 0 109 C0 73.03 0 37.06 0 0 Z " fill="#000000" transform="translate(523,14)"/>
<path d="M0 0 C2.97 0.495 2.97 0.495 6 1 C8.0745356 1.1490712 8.0745356 1.1490712 10 0 C14.5134952 -0.53151198 17.89138503 -0.86526046 21.5625 2 C22.036875 2.66 22.51125 3.32 23 4 C23.61875 3.34 24.2375 2.68 24.875 2 C29.22001609 -0.7808103 32.9655338 -0.97547949 38 0 C41.34625024 2.52676039 42.67977847 4.03933542 44 8 C44.08266486 9.91906917 44.10740663 11.84089474 44.09765625 13.76171875 C44.09443359 14.87998047 44.09121094 15.99824219 44.08789062 17.15039062 C44.07532227 18.90125977 44.07532227 18.90125977 44.0625 20.6875 C44.05798828 21.86634766 44.05347656 23.04519531 44.04882812 24.25976562 C44.03703273 27.17322789 44.0205727 30.08658863 44 33 C41.69 33 39.38 33 37 33 C36.505 20.625 36.505 20.625 36 8 C31.48445668 5.56937184 31.48445668 5.56937184 28.75 6.75 C26.85703431 7.89602495 26.85703431 7.89602495 26 10 C25.84733388 11.73868744 25.75067404 13.48247501 25.68359375 15.2265625 C25.64169922 16.2578125 25.59980469 17.2890625 25.55664062 18.3515625 C25.51732422 19.43179688 25.47800781 20.51203125 25.4375 21.625 C25.39431641 22.71296875 25.35113281 23.8009375 25.30664062 24.921875 C25.2003547 27.6144517 25.09831943 30.30712253 25 33 C23.02 33 21.04 33 19 33 C18.98018066 32.39003174 18.96036133 31.78006348 18.93994141 31.15161133 C18.84432124 28.37149467 18.73479295 25.59209154 18.625 22.8125 C18.5940625 21.85279297 18.563125 20.89308594 18.53125 19.90429688 C18.49257813 18.97294922 18.45390625 18.04160156 18.4140625 17.08203125 C18.36693115 15.80162964 18.36693115 15.80162964 18.31884766 14.49536133 C17.96252794 11.70673669 17.22382835 9.52651588 16 7 C14.21328929 5.82387805 14.21328929 5.82387805 12 6 C9.32074086 7.07131776 9.32074086 7.07131776 7 9 C6.22207053 11.58973587 6.22207053 11.58973587 6.29296875 14.54296875 C6.26396484 15.61611328 6.23496094 16.68925781 6.20507812 17.79492188 C6.19927734 18.91447266 6.19347656 20.03402344 6.1875 21.1875 C6.16236328 22.31865234 6.13722656 23.44980469 6.11132812 24.61523438 C6.05235616 27.4105053 6.01614967 30.20420675 6 33 C4.02 33 2.04 33 0 33 C0 22.11 0 11.22 0 0 Z " fill="#000000" transform="translate(282,152)"/>
<path d="M0 0 C4.7344316 1.91391916 7.72684393 5.45368786 10 10 C10.65252869 17.64849205 10.93164191 23.86876951 6 30 C2.1170113 32.8732761 -0.70476586 33.40861145 -5.5 33.375 C-6.6034375 33.38273437 -7.706875 33.39046875 -8.84375 33.3984375 C-12.99375564 32.87455065 -15.68640462 31.59588666 -18.36328125 28.34375 C-21.31391278 22.61248218 -21.80114921 17.37988336 -21 11 C-17.43148012 0.67007402 -9.79807107 -0.78100566 0 0 Z M-13 9 C-14.96752105 12.9350421 -14.46422595 17.7105522 -14 22 C-12.19881522 25.00197464 -11.09667268 26.45166366 -8 28 C-5.0842309 28.41702122 -5.0842309 28.41702122 -2 28 C0.30275556 26.1329009 1.67823871 24.64352259 3 22 C3.49779306 16.93230339 3.74215091 12.48430181 1.4375 7.875 C-4.00604807 3.68765533 -8.32076627 4.18314174 -13 9 Z " fill="#000000" transform="translate(548,152)"/>
<path d="M0 0 C4.33685529 3.90316976 6.20396919 6.80010244 6.703125 12.6171875 C6.83508102 19.67683477 5.69915894 23.58786023 1.125 29.125 C-2.90165431 32.25122156 -7.53877905 31.87241339 -12.4296875 31.671875 C-16.40735934 31.12532467 -18.62264241 30.05163765 -21.5 27.25 C-25.78564143 21.39467786 -25.21426778 15.22414275 -24.5 8.25 C-23.31005734 4.18268187 -21.34140278 1.88618259 -17.9375 -0.6875 C-11.72035473 -2.60916308 -5.88771365 -2.94385683 0 0 Z M-15.5 5.25 C-18.32316734 10.0201793 -19.00866417 13.6753383 -18.13671875 19.16015625 C-17.08352617 22.61695399 -15.43307419 24.22943778 -12.5 26.25 C-8.5636245 26.98807041 -7.06074202 26.61136708 -3.6875 24.4375 C-0.6886665 21.4386665 -0.3336286 18.95886349 -0.25 14.875 C-0.29563895 10.8652919 -0.89720562 8.43119314 -3.5 5.25 C-7.59435647 2.52042902 -11.45542629 2.14916016 -15.5 5.25 Z " fill="#000000" transform="translate(740.5,153.75)"/>
<path d="M0 0 C1.65 0 3.3 0 5 0 C5.33 0.99 5.66 1.98 6 3 C6.78375 2.505 7.5675 2.01 8.375 1.5 C13.03045706 -0.42639602 17.02592066 -0.90362441 22 0 C25.34625024 2.52676039 26.67977847 4.03933542 28 8 C28.08266486 9.91906917 28.10740663 11.84089474 28.09765625 13.76171875 C28.09443359 14.87998047 28.09121094 15.99824219 28.08789062 17.15039062 C28.07951172 18.31763672 28.07113281 19.48488281 28.0625 20.6875 C28.05798828 21.86634766 28.05347656 23.04519531 28.04882812 24.25976562 C28.03703273 27.17322789 28.0205727 30.08658863 28 33 C25.69 33 23.38 33 21 33 C20.98541748 32.25314941 20.97083496 31.50629883 20.95581055 30.73681641 C20.88152054 27.36567748 20.78479801 23.99554995 20.6875 20.625 C20.66494141 19.449375 20.64238281 18.27375 20.61914062 17.0625 C20.58369141 15.94101563 20.54824219 14.81953125 20.51171875 13.6640625 C20.48553467 12.62717285 20.45935059 11.5902832 20.43237305 10.52197266 C20.28968994 9.68972168 20.14700684 8.8574707 20 8 C17.18138229 5.67178442 17.18138229 5.67178442 14 6.25 C10.84584582 6.85985983 10.84584582 6.85985983 8 9 C7.49039309 11.51385259 7.49039309 11.51385259 7.48828125 14.4453125 C7.45283203 15.52167969 7.41738281 16.59804687 7.38085938 17.70703125 C7.35830078 18.83496094 7.33574219 19.96289062 7.3125 21.125 C7.27833984 22.26066406 7.24417969 23.39632812 7.20898438 24.56640625 C7.12630498 27.37750579 7.05722063 30.18828553 7 33 C4.69 33 2.38 33 0 33 C0 22.11 0 11.22 0 0 Z " fill="#000000" transform="translate(765,152)"/>
<path d="M0 0 C3.00197464 1.80118478 4.45166366 2.90332732 6 6 C6.08527628 8.03232634 6.10716135 10.06747006 6.09765625 12.1015625 C6.09443359 13.31328125 6.09121094 14.525 6.08789062 15.7734375 C6.07951172 17.04445312 6.07113281 18.31546875 6.0625 19.625 C6.05798828 20.90375 6.05347656 22.1825 6.04882812 23.5 C6.03701203 26.66671292 6.02053815 29.83333356 6 33 C4.35 33 2.7 33 1 33 C0.67 32.01 0.34 31.02 0 30 C-0.81984375 30.73089844 -0.81984375 30.73089844 -1.65625 31.4765625 C-4.49331786 33.32065661 -6.14342289 33.4026641 -9.5 33.375 C-10.90765625 33.38660156 -10.90765625 33.38660156 -12.34375 33.3984375 C-15.42887373 32.93566894 -16.7882276 32.17650496 -19 30 C-20.05394397 26.20580172 -20.36643533 23.94842085 -18.9375 20.25 C-15.02568389 15.70724581 -10.89468534 14.8538715 -5.125 14.3125 C-3.41743713 14.19638572 -1.70923212 14.08819881 0 14 C-0.66 11.69 -1.32 9.38 -2 7 C-5.86303973 5.9882515 -7.47978448 5.73989224 -11.125 7.5625 C-12.548125 8.2740625 -12.548125 8.2740625 -14 9 C-16.375 8.1875 -16.375 8.1875 -18 7 C-17.875 5.1875 -17.875 5.1875 -17 3 C-11.90152439 -0.7567715 -6.08755593 -0.86170883 0 0 Z M-13 22 C-12.67 23.98 -12.34 25.96 -12 28 C-8.79280276 29.41116678 -7.71609948 28.89413879 -4.3125 27.625 C-1.22321466 26.33101649 -1.22321466 26.33101649 0 25 C0.04080783 23.00041636 0.04254356 20.99954746 0 19 C-5.26053037 18.68436818 -8.44573816 19.33409063 -13 22 Z " fill="#000000" transform="translate(364,152)"/>
<path d="M0 0 C1.98 0 3.96 0 6 0 C6.02505615 0.64026123 6.0501123 1.28052246 6.07592773 1.94018555 C6.1923546 4.85613726 6.31486867 7.7718029 6.4375 10.6875 C6.47681641 11.69490234 6.51613281 12.70230469 6.55664062 13.74023438 C6.59853516 14.71669922 6.64042969 15.69316406 6.68359375 16.69921875 C6.72025146 17.59471436 6.75690918 18.49020996 6.79467773 19.4128418 C7.00061751 22.00778088 7.43767822 24.46054684 8 27 C13.00620114 27.29448242 16.02145576 27.16556485 20 24 C20.77792947 21.41026413 20.77792947 21.41026413 20.70703125 18.45703125 C20.75053711 16.84731445 20.75053711 16.84731445 20.79492188 15.20507812 C20.80072266 14.08552734 20.80652344 12.96597656 20.8125 11.8125 C20.83763672 10.68134766 20.86277344 9.55019531 20.88867188 8.38476562 C20.94764384 5.5894947 20.98385033 2.79579325 21 0 C22.98 0 24.96 0 27 0 C27 10.89 27 21.78 27 33 C25.35 33 23.7 33 22 33 C21.34 32.34 20.68 31.68 20 31 C19.01 31.66 18.02 32.32 17 33 C11.82681279 33.68869056 7.40355869 33.84213522 2.875 31.125 C-0.22165553 27.61545707 -0.11922188 25.51348148 -0.09765625 20.8984375 C-0.09443359 19.68671875 -0.09121094 18.475 -0.08789062 17.2265625 C-0.07951172 15.95554688 -0.07113281 14.68453125 -0.0625 13.375 C-0.05798828 12.09625 -0.05347656 10.8175 -0.04882812 9.5 C-0.03701203 6.33328708 -0.02053815 3.16666644 0 0 Z " fill="#000000" transform="translate(605,152)"/>
<path d="M0 0 C0.61875 0.495 1.2375 0.99 1.875 1.5 C1.545 2.82 1.215 4.14 0.875 5.5 C0.10414063 5.41621094 -0.66671875 5.33242187 -1.4609375 5.24609375 C-2.46382813 5.14425781 -3.46671875 5.04242188 -4.5 4.9375 C-5.49773437 4.83308594 -6.49546875 4.72867188 -7.5234375 4.62109375 C-10.109037 4.28855292 -10.109037 4.28855292 -12.125 5.5 C-12.125 6.82 -12.125 8.14 -12.125 9.5 C-11.29355469 9.81453125 -10.46210938 10.1290625 -9.60546875 10.453125 C-8.51878906 10.88109375 -7.43210938 11.3090625 -6.3125 11.75 C-4.69408203 12.37648437 -4.69408203 12.37648437 -3.04296875 13.015625 C-0.0070489 14.5600019 1.2973989 15.51086107 2.875 18.5 C3.125 20.71875 3.125 20.71875 2.875 23 C2.7821875 24.12921875 2.7821875 24.12921875 2.6875 25.28125 C1.48964679 28.55231069 -0.18408193 29.69424399 -3.125 31.5 C-6.28125 31.99609375 -6.28125 31.99609375 -9.625 31.9375 C-10.7284375 31.93621094 -11.831875 31.93492187 -12.96875 31.93359375 C-16.38378998 31.46444841 -18.32902612 30.46657118 -21.125 28.5 C-20.465 27.18 -19.805 25.86 -19.125 24.5 C-14.835 24.83 -10.545 25.16 -6.125 25.5 C-5.795 23.85 -5.465 22.2 -5.125 20.5 C-5.87265625 20.18546875 -6.6203125 19.8709375 -7.390625 19.546875 C-8.37546875 19.11890625 -9.3603125 18.6909375 -10.375 18.25 C-11.34953125 17.83234375 -12.3240625 17.4146875 -13.328125 16.984375 C-16.21903878 15.45009115 -18.05704201 14.02696735 -20.125 11.5 C-20.73947856 7.27545993 -20.60263281 5.25762445 -18.3125 1.625 C-13.57958344 -2.97269037 -5.7036464 -2.73775027 0 0 Z " fill="#000000" transform="translate(260.125,153.5)"/>
<path d="M0 0 C3.625 1.5 3.625 1.5 6 3 C5.34 4.32 4.68 5.64 4 7 C3.22914063 6.91621094 2.45828125 6.83242187 1.6640625 6.74609375 C0.66117188 6.64425781 -0.34171875 6.54242188 -1.375 6.4375 C-2.37273438 6.33308594 -3.37046875 6.22867188 -4.3984375 6.12109375 C-6.984037 5.78855292 -6.984037 5.78855292 -9 7 C-9.65213292 9.02463255 -9.65213292 9.02463255 -10 11 C-9.41992188 11.17015625 -8.83984375 11.3403125 -8.2421875 11.515625 C-2.88977251 13.17611018 1.94983457 14.94983457 6 19 C6.58968059 26.07616708 6.58968059 26.07616708 4.125 29.9375 C0.67226713 33.2886819 -1.58063284 33.18569376 -6.3125 33.25 C-7.44300781 33.27578125 -8.57351563 33.3015625 -9.73828125 33.328125 C-13.27776337 32.97205734 -15.13259621 32.04430289 -18 30 C-17.34 28.68 -16.68 27.36 -16 26 C-15.08476563 26.0721875 -14.16953125 26.144375 -13.2265625 26.21875 C-12.03804687 26.3115625 -10.84953125 26.404375 -9.625 26.5 C-7.84996094 26.63921875 -7.84996094 26.63921875 -6.0390625 26.78125 C-4.36213157 26.90195454 -2.68126944 27 -1 27 C-1.04168517 24.58773728 -1.04168517 24.58773728 -2 22 C-4.6419027 20.22743608 -4.6419027 20.22743608 -7.875 18.9375 C-14.86906189 15.89550441 -14.86906189 15.89550441 -17 12 C-16.92806179 7.97146033 -16.63067947 5.77309097 -14.0625 2.625 C-9.70355549 -0.80931992 -5.37704297 -0.49330669 0 0 Z " fill="#000000" transform="translate(828,152)"/>
<path d="M0 0 C3.1875 1.5 3.1875 1.5 5 3 C4.67 4.32 4.34 5.64 4 7 C3.15695312 6.91621094 2.31390625 6.83242187 1.4453125 6.74609375 C0.34960938 6.64425781 -0.74609375 6.54242188 -1.875 6.4375 C-2.96554687 6.33308594 -4.05609375 6.22867188 -5.1796875 6.12109375 C-7.95152023 5.77360596 -7.95152023 5.77360596 -10 7 C-9.91275485 8.93725233 -9.91275485 8.93725233 -9 11 C-6.56718982 12.47462606 -6.56718982 12.47462606 -3.625 13.5625 C2.96640634 16.21471495 2.96640634 16.21471495 5 19 C5.7474393 22.09405106 5.63206056 24.88873636 5 28 C2.84630609 31.01517148 2.29856631 31.77852732 -1 33 C-11.8340982 34.38279072 -11.8340982 34.38279072 -16.3984375 31.46875 C-16.92695313 30.9840625 -17.45546875 30.499375 -18 30 C-17.67 28.68 -17.34 27.36 -17 26 C-16.08476562 26.08378906 -15.16953125 26.16757813 -14.2265625 26.25390625 C-13.03804688 26.35574219 -11.84953125 26.45757812 -10.625 26.5625 C-9.44164062 26.66691406 -8.25828125 26.77132812 -7.0390625 26.87890625 C-4.08101369 27.24153596 -4.08101369 27.24153596 -2 26 C-2 24.68 -2 23.36 -2 22 C-2.83144531 21.67386719 -3.66289062 21.34773438 -4.51953125 21.01171875 C-5.60621094 20.57472656 -6.69289063 20.13773438 -7.8125 19.6875 C-8.89144531 19.25824219 -9.97039062 18.82898438 -11.08203125 18.38671875 C-13.73992854 17.12359487 -15.30569602 16.36856781 -17 14 C-17.74704607 10.90757672 -17.64234812 8.10831169 -17 5 C-12.50475234 -0.95316582 -7.10506563 -1.03660532 0 0 Z " fill="#000000" transform="translate(505,152)"/>
<path d="M0 0 C1.65 0 3.3 0 5 0 C5 3.63 5 7.26 5 11 C7.97 11 10.94 11 14 11 C14 12.65 14 14.3 14 16 C11.03 16 8.06 16 5 16 C5.33 22.93 5.66 29.86 6 37 C8.97 36.505 8.97 36.505 12 36 C12.66 36.66 13.32 37.32 14 38 C13.46428571 41.53571429 13.46428571 41.53571429 12 43 C9.6015625 43.23828125 9.6015625 43.23828125 6.625 43.3125 C5.64789062 43.34988281 4.67078125 43.38726562 3.6640625 43.42578125 C1 43 1 43 -0.64819336 41.31225586 C-2.29043448 38.50321385 -2.34691322 36.81479339 -2.29296875 33.578125 C-2.28330078 32.55332031 -2.27363281 31.52851563 -2.26367188 30.47265625 C-2.23853516 29.40917969 -2.21339844 28.34570312 -2.1875 27.25 C-2.17396484 26.17105469 -2.16042969 25.09210938 -2.14648438 23.98046875 C-2.11116584 21.3198058 -2.06184199 18.66015704 -2 16 C-3.65 16 -5.3 16 -7 16 C-7 14.35 -7 12.7 -7 11 C-5.35 11 -3.7 11 -2 11 C-1.93941406 10.28972656 -1.87882813 9.57945312 -1.81640625 8.84765625 C-1.73261719 7.92855469 -1.64882813 7.00945312 -1.5625 6.0625 C-1.48128906 5.14597656 -1.40007813 4.22945312 -1.31640625 3.28515625 C-1 1 -1 1 0 0 Z " fill="#000000" transform="translate(657,142)"/>
<path d="M0 0 C1.65 0 3.3 0 5 0 C5 3.63 5 7.26 5 11 C7.97 11 10.94 11 14 11 C14 12.65 14 14.3 14 16 C11.03 16 8.06 16 5 16 C5.33 22.6 5.66 29.2 6 36 C9.13349732 37.04449911 9.98968256 36.93423645 13 36 C13.66 37.65 14.32 39.3 15 41 C11.78169935 43.14553377 10.73213493 43.29583868 7 43.3125 C6.13375 43.32925781 5.2675 43.34601563 4.375 43.36328125 C1.54993808 42.93115829 0.7302276 42.22226107 -1 40 C-2.25248502 37.49502996 -2.11374406 35.79146726 -2.09765625 32.9921875 C-2.09443359 32.00605469 -2.09121094 31.01992187 -2.08789062 30.00390625 C-2.07951172 28.97136719 -2.07113281 27.93882812 -2.0625 26.875 C-2.05798828 25.83472656 -2.05347656 24.79445312 -2.04882812 23.72265625 C-2.03701952 21.14838038 -2.02055075 18.57421854 -2 16 C-3.65 15.67 -5.3 15.34 -7 15 C-7 13.68 -7 12.36 -7 11 C-5.02 11 -3.04 11 -1 11 C-1.020625 9.741875 -1.04125 8.48375 -1.0625 7.1875 C-1.10886083 4.35948913 -0.91692961 2.75078884 0 0 Z " fill="#000000" transform="translate(432,142)"/>
<path d="M0 0 C2.31 0 4.62 0 7 0 C7 15.51 7 31.02 7 47 C4.69 47 2.38 47 0 47 C0 31.49 0 15.98 0 0 Z " fill="#000000" transform="translate(577,138)"/>
<path d="M0 0 C5 1 5 1 7 3 C7.495 2.505 7.99 2.01 8.5 1.5 C12.11630158 -0.66978095 14.82231616 -0.20888419 19 0 C19.93423645 3.01031744 20.04449911 3.86650268 19 7 C17.948125 6.896875 16.89625 6.79375 15.8125 6.6875 C11.98434612 6.68370504 11.98434612 6.68370504 9.3125 8.84375 C5.99054837 13.37776506 6.2206784 17.32331765 6.1875 22.8125 C6.16236328 23.79154297 6.13722656 24.77058594 6.11132812 25.77929688 C6.05261337 28.18660197 6.0162202 30.59209562 6 33 C4.02 33 2.04 33 0 33 C0 22.11 0 11.22 0 0 Z " fill="#000000" transform="translate(391,152)"/>
<path d="M0 0 C1.98 0 3.96 0 6 0 C6 10.89 6 21.78 6 33 C4.02 33 2.04 33 0 33 C0 22.11 0 11.22 0 0 Z " fill="#000000" transform="translate(690,152)"/>
<path d="M0 0 C2.625 0.625 2.625 0.625 5 2 C5.9375 3.9375 5.9375 3.9375 6 6 C5.01 7.485 5.01 7.485 4 9 C0.9375 9.25 0.9375 9.25 -2 9 C-3 8 -3 8 -3.25 5.0625 C-3.1675 4.051875 -3.085 3.04125 -3 2 C-2.01 1.34 -1.02 0.68 0 0 Z " fill="#000000" transform="translate(692,138)"/>
</svg>
